<?xml version="1.0" encoding="utf-8"?>
<!-- Generator: Adobe Illustrator 25.3.1, SVG Export Plug-In . SVG Version: 6.00 Build 0)  -->
<svg version="1.1" id="레이어_1" xmlns="http://www.w3.org/2000/svg" xmlns:xlink="http://www.w3.org/1999/xlink" x="0px"
	 y="0px" viewBox="0 0 33 33" style="enable-background:new 0 0 33 33;" xml:space="preserve">
<style type="text/css">
	.st0{fill:#FCEE21;}
</style>
<g>
	<path class="st0" d="M19.4,9.5l-10,10c-1,1-1,2.8,0,3.8c1,1,2.8,1,3.8,0l10-10c1-1,1-2.8,0-3.8S20.5,8.5,19.4,9.5z"/>
	<path class="st0" d="M29.4,3.6c-4.3-4.3-11.4-4.3-15.7,0c-1.1,1.1-1.1,2.8,0,3.8c1.1,1.1,2.8,1.1,3.8,0c2.2-2.2,5.8-2.2,8.1,0
		c2.2,2.2,2.2,5.8,0,8.1c-1.1,1.1-1.1,2.8,0,3.8s2.8,1.1,3.8,0C33.7,15,33.7,7.9,29.4,3.6z"/>
	<path class="st0" d="M15.5,25.6c-2.2,2.2-5.8,2.2-8.1,0s-2.2-5.8,0-8.1c1.1-1.1,1.1-2.8,0-3.8s-2.8-1.1-3.8,0
		c-4.3,4.3-4.3,11.4,0,15.7c4.3,4.3,11.4,4.3,15.7,0c1.1-1.1,1.1-2.8,0-3.8C18.2,24.5,16.5,24.5,15.5,25.6z"/>
</g>
</svg>
